<?xml version="1.0" encoding="iso-8859-1"?>
<!-- Uploaded to: SVG Repo, www.svgrepo.com, Generator: SVG Repo Mixer Tools -->
<!DOCTYPE svg PUBLIC "-//W3C//DTD SVG 1.1//EN" "http://www.w3.org/Graphics/SVG/1.1/DTD/svg11.dtd">
<svg fill="#000000" version="1.1" id="Capa_1" xmlns="http://www.w3.org/2000/svg" xmlns:xlink="http://www.w3.org/1999/xlink" 
	 width="800px" height="800px" viewBox="0 0 306.18 306.18"
	 xml:space="preserve">
<g>
	<path d="M63.852,193.022c-12.459,2.195-20.772,14.054-18.581,26.513c1.948,11.108,11.604,18.927,22.514,18.927
		c1.319,0,2.649-0.116,3.99-0.353l13.202-2.316v47.496c0,12.632,10.253,22.891,22.891,22.891c12.644,0,22.893-10.259,22.893-22.891
		v-55.543l40.837-7.185v48.421c0,12.644,10.26,22.891,22.895,22.891c12.64,0,22.891-10.247,22.891-22.891v-56.456l27.996-4.938
		c12.451-2.176,20.771-14.042,18.586-26.493c-2.188-12.467-14.062-20.771-26.513-18.582l-20.077,3.526v-47.532l24.954-4.386
		c12.451-2.192,20.767-14.06,18.574-26.511c-2.176-12.453-14.065-20.748-26.509-18.582l-17.02,2.989V22.891
		C217.374,10.249,207.123,0,194.483,0c-12.635,0-22.895,10.249-22.895,22.891v57.174l-40.837,7.175V37.193
		c0-12.638-10.249-22.893-22.892-22.893c-12.638,0-22.891,10.255-22.891,22.893v58.1L60.8,99.541
		c-12.461,2.192-20.772,14.06-18.583,26.509c1.946,11.108,11.602,18.937,22.516,18.937c1.318,0,2.645-0.122,3.985-0.353l16.25-2.855
		v47.536L63.852,193.022z M130.751,133.74l40.837-7.175v47.522l-40.837,7.178V133.74z"/>
</g>
</svg>